<svg width="22" height="22" viewBox="0 0 22 22" fill="none" xmlns="http://www.w3.org/2000/svg">
<mask id="mask0_1193_1727" style="mask-type:alpha" maskUnits="userSpaceOnUse" x="0" y="0" width="22" height="22">
<rect width="22" height="22" fill="#D9D9D9"/>
</mask>
<g mask="url(#mask0_1193_1727)">
<path d="M17.8199 18.7916C16.0924 18.7916 14.357 18.3899 12.6135 17.5866C10.8701 16.7833 9.26832 15.6502 7.80807 14.1872C6.34797 12.724 5.21627 11.1221 4.41297 9.38154C3.60966 7.6411 3.20801 5.90715 3.20801 4.17969C3.20801 3.90209 3.29967 3.67079 3.48301 3.48577C3.66634 3.30076 3.89551 3.20825 4.17051 3.20825H7.16022C7.39167 3.20825 7.59586 3.2838 7.77278 3.4349C7.9497 3.58584 8.06222 3.77238 8.11034 3.99452L8.63582 6.69159C8.67218 6.94184 8.66454 7.15687 8.6129 7.33669C8.56111 7.51651 8.46822 7.66753 8.33424 7.78975L6.2172 9.85065C6.55789 10.4746 6.94717 11.0648 7.38503 11.6214C7.82274 12.1778 8.29665 12.7093 8.80678 13.2157C9.30972 13.7188 9.84445 14.186 10.4109 14.6173C10.9774 15.0486 11.5892 15.45 12.2461 15.8214L14.3031 13.7465C14.4466 13.5972 14.6203 13.4926 14.8242 13.4325C15.028 13.3726 15.2399 13.358 15.4597 13.3885L18.0051 13.9069C18.2365 13.968 18.4254 14.0861 18.5718 14.2612C18.7182 14.4363 18.7913 14.6349 18.7913 14.857V17.8291C18.7913 18.1041 18.6988 18.3333 18.5138 18.5166C18.3288 18.6999 18.0975 18.7916 17.8199 18.7916ZM5.56659 8.54967L7.20261 6.98423C7.23195 6.9607 7.25104 6.92839 7.2599 6.88729C7.26876 6.8462 7.26731 6.808 7.25555 6.77271L6.85703 4.72419C6.84526 4.67729 6.82472 4.64207 6.79538 4.61854C6.76605 4.59502 6.72786 4.58325 6.6808 4.58325H4.72051C4.68522 4.58325 4.65581 4.59502 4.63228 4.61854C4.6089 4.64207 4.59722 4.67148 4.59722 4.70677C4.64412 5.33316 4.74663 5.96948 4.90476 6.61573C5.06273 7.26213 5.28334 7.90678 5.56659 8.54967ZM13.5416 16.4717C14.1492 16.755 14.7829 16.9715 15.4428 17.1214C16.1028 17.2711 16.7194 17.3601 17.2928 17.3884C17.3281 17.3884 17.3575 17.3766 17.3811 17.3531C17.4046 17.3296 17.4163 17.3002 17.4163 17.2649V15.3364C17.4163 15.2894 17.4046 15.2512 17.3811 15.2219C17.3575 15.1925 17.3223 15.172 17.2754 15.1602L15.3504 14.7688C15.3151 14.757 15.2843 14.7556 15.2578 14.7644C15.2314 14.7733 15.2034 14.7924 15.1739 14.8217L13.5416 16.4717Z" fill="white"/>
</g>
</svg>
