<svg width="22" height="22" viewBox="0 0 22 22" fill="none" xmlns="http://www.w3.org/2000/svg">
<mask id="mask0_1193_1713" style="mask-type:alpha" maskUnits="userSpaceOnUse" x="0" y="0" width="22" height="22">
<rect width="22" height="22" fill="#D9D9D9"/>
</mask>
<g mask="url(#mask0_1193_1713)">
<path d="M11.0017 10.8766C11.4577 10.8766 11.8476 10.7142 12.1713 10.3894C12.4952 10.0645 12.6572 9.67412 12.6572 9.21808C12.6572 8.76204 12.4948 8.37207 12.1699 8.04819C11.8451 7.72445 11.4546 7.56258 10.9984 7.56258C10.5424 7.56258 10.1525 7.72498 9.82878 8.04979C9.5049 8.3746 9.34295 8.7651 9.34295 9.22129C9.34295 9.67733 9.50535 10.0672 9.83016 10.391C10.155 10.7147 10.5455 10.8766 11.0017 10.8766ZM11.0001 17.8875C12.7934 16.2821 14.1657 14.7422 15.117 13.2679C16.0684 11.7936 16.5441 10.5023 16.5441 9.39408C16.5441 7.723 16.0132 6.34922 14.9513 5.27275C13.8895 4.19628 12.5724 3.65804 11.0001 3.65804C9.42767 3.65804 8.11057 4.19628 7.04876 5.27275C5.98696 6.34922 5.45605 7.723 5.45605 9.39408C5.45605 10.5023 5.93173 11.7936 6.88308 13.2679C7.83442 14.7422 9.20675 16.2821 11.0001 17.8875ZM11.0001 19.7171C8.69311 17.7182 6.96321 15.8579 5.81035 14.1362C4.65748 12.4144 4.08105 10.8337 4.08105 9.39408C4.08105 7.27872 4.76527 5.56616 6.1337 4.25639C7.50228 2.94663 9.1244 2.29175 11.0001 2.29175C12.8757 2.29175 14.4978 2.94663 15.8664 4.25639C17.2348 5.56616 17.9191 7.27872 17.9191 9.39408C17.9191 10.8337 17.3426 12.4144 16.1898 14.1362C15.0369 15.8579 13.307 17.7182 11.0001 19.7171Z" fill="white"/>
</g>
</svg>
