<svg width="22" height="22" viewBox="0 0 22 22" fill="none" xmlns="http://www.w3.org/2000/svg">
<mask id="mask0_1193_1739" style="mask-type:alpha" maskUnits="userSpaceOnUse" x="0" y="0" width="22" height="22">
<rect width="22" height="22" fill="#D9D9D9"/>
</mask>
<g mask="url(#mask0_1193_1739)">
<path d="M3.9491 17.875C3.48603 17.875 3.09408 17.7146 2.77324 17.3938C2.45241 17.0729 2.29199 16.681 2.29199 16.2179V5.7821C2.29199 5.31903 2.45241 4.92708 2.77324 4.60625C3.09408 4.28542 3.48603 4.125 3.9491 4.125H18.0516C18.5146 4.125 18.9066 4.28542 19.2274 4.60625C19.5482 4.92708 19.7087 5.31903 19.7087 5.7821V16.2179C19.7087 16.681 19.5482 17.0729 19.2274 17.3938C18.9066 17.7146 18.5146 17.875 18.0516 17.875H3.9491ZM11.0003 11.5113L3.66699 6.82206V16.2179C3.66699 16.3002 3.69342 16.3678 3.74628 16.4207C3.79915 16.4736 3.86675 16.5 3.9491 16.5H18.0516C18.1339 16.5 18.2015 16.4736 18.2544 16.4207C18.3072 16.3678 18.3337 16.3002 18.3337 16.2179V6.82206L11.0003 11.5113ZM11.0003 10.0833L18.1927 5.5H3.80793L11.0003 10.0833ZM3.66699 6.82206V5.5V16.2179C3.66699 16.3002 3.69342 16.3678 3.74628 16.4207C3.79915 16.4736 3.86675 16.5 3.9491 16.5H3.66699V6.82206Z" fill="white"/>
</g>
</svg>
