<svg width="32" height="32" viewBox="0 0 32 32" fill="none" xmlns="http://www.w3.org/2000/svg">
<mask id="mask0_1254_778" style="mask-type:alpha" maskUnits="userSpaceOnUse" x="0" y="0" width="32" height="32">
<rect width="32" height="32" fill="#D9D9D9"/>
</mask>
<g mask="url(#mask0_1254_778)">
<path d="M16.002 28.6667C14.25 28.6667 12.6032 28.3343 11.0617 27.6694C9.52012 27.0045 8.17923 26.1022 7.03901 24.9624C5.89879 23.8226 4.99601 22.4823 4.33067 20.9414C3.66556 19.4005 3.33301 17.7542 3.33301 16.0024C3.33301 14.2504 3.66545 12.6036 4.33034 11.062C4.99523 9.52048 5.89756 8.1796 7.03734 7.03937C8.17712 5.89915 9.51745 4.99637 11.0583 4.33104C12.5992 3.66593 14.2456 3.33337 15.9973 3.33337C17.7493 3.33337 19.3961 3.66582 20.9377 4.33071C22.4792 4.9956 23.8201 5.89793 24.9603 7.03771C26.1006 8.17749 27.0033 9.51782 27.6687 11.0587C28.3338 12.5996 28.6663 14.2459 28.6663 15.9977C28.6663 17.7497 28.3339 19.3965 27.669 20.938C27.0041 22.4796 26.1018 23.8205 24.962 24.9607C23.8222 26.1009 22.4819 27.0037 20.941 27.669C19.4001 28.3342 17.7538 28.6667 16.002 28.6667ZM15.9997 26.6667C17.2997 26.6667 18.5242 26.4509 19.6733 26.0194C20.8225 25.5876 21.8611 24.9863 22.7893 24.2154L20.428 21.8537C19.8176 22.3204 19.1345 22.6837 18.3787 22.9437C17.6229 23.2035 16.8299 23.3334 15.9997 23.3334C13.9626 23.3334 12.2311 22.6207 10.8053 21.1954C9.37934 19.77 8.66634 18.0393 8.66634 16.003C8.66634 13.9668 9.37901 12.235 10.8043 10.8077C12.2297 9.38037 13.9605 8.66671 15.9967 8.66671C18.0329 8.66671 19.7647 9.37971 21.192 10.8057C22.6193 12.2315 23.333 13.9629 23.333 16C23.333 16.8325 23.1997 17.6289 22.933 18.3894C22.6663 19.1498 22.2997 19.8363 21.833 20.4487L24.1947 22.8104C24.9656 21.8822 25.5702 20.8412 26.0087 19.6874C26.4471 18.5334 26.6663 17.3043 26.6663 16C26.6663 13.0223 25.633 10.5 23.5663 8.43337C21.4997 6.36671 18.9775 5.33337 15.9997 5.33337C13.0219 5.33337 10.4997 6.36671 8.43301 8.43337C6.36634 10.5 5.33301 13.0223 5.33301 16C5.33301 18.9778 6.36634 21.5 8.43301 23.5667C10.4997 25.6334 13.0219 26.6667 15.9997 26.6667ZM15.9997 21.3334C16.5483 21.3334 17.0761 21.253 17.583 21.0924C18.0899 20.9317 18.5561 20.7035 18.9817 20.4077L16.4997 17.9257C16.4168 17.9586 16.3339 17.9793 16.251 17.9877C16.1681 17.9959 16.0852 18 16.0023 18C15.4552 18 14.9847 17.803 14.5907 17.409C14.1967 17.015 13.9997 16.5454 13.9997 16C13.9997 15.4547 14.1967 14.985 14.5907 14.591C14.9847 14.197 15.4543 14 15.9997 14C16.545 14 17.0147 14.197 17.4087 14.591C17.8027 14.985 17.9997 15.4538 17.9997 15.9974C17.9997 16.0963 17.9956 16.191 17.9873 16.2817C17.9789 16.3722 17.9582 16.4586 17.9253 16.541L20.3867 19.0027C20.6825 18.5769 20.9141 18.1117 21.0817 17.607C21.2492 17.1022 21.333 16.5665 21.333 16C21.333 14.5334 20.8108 13.2778 19.7663 12.2334C18.7219 11.1889 17.4663 10.6667 15.9997 10.6667C14.533 10.6667 13.2775 11.1889 12.233 12.2334C11.1886 13.2778 10.6663 14.5334 10.6663 16C10.6663 17.4667 11.1886 18.7223 12.233 19.7667C13.2775 20.8112 14.533 21.3334 15.9997 21.3334Z" fill="#816549"/>
</g>
</svg>
