<svg width="24" height="24" viewBox="0 0 24 24" fill="none" xmlns="http://www.w3.org/2000/svg">
<mask id="mask0_1267_275" style="mask-type:alpha" maskUnits="userSpaceOnUse" x="0" y="0" width="24" height="24">
<rect width="24" height="24" fill="#D9D9D9"/>
</mask>
<g mask="url(#mask0_1267_275)">
<path d="M18.9283 20.5L13.4151 14.9865L14.9956 13.4057L20.5091 18.9192L18.9283 20.5ZM5.08034 20.5L3.49959 18.9192L10.4286 11.9905L8.09384 9.66524L7.47084 10.2885L6.35934 9.16724V11.0922L5.73609 11.7152L2.91309 8.89224L3.53609 8.26924H5.46109L4.35534 7.17299L7.21309 4.31549C7.49509 4.03332 7.8005 3.82691 8.12934 3.69624C8.45817 3.56541 8.80017 3.49999 9.15534 3.49999C9.5105 3.49999 9.8525 3.56541 10.1813 3.69624C10.5102 3.82691 10.8156 4.03332 11.0976 4.31549L9.12459 6.28849L10.2976 7.46149L9.67459 8.08449L12.0091 10.4097L14.4131 8.00574C14.3016 7.80324 14.2202 7.59399 14.1688 7.37799C14.1175 7.16182 14.0918 6.93457 14.0918 6.69624C14.0918 5.79624 14.4021 5.03599 15.0226 4.41549C15.6431 3.79499 16.4033 3.48474 17.3033 3.48474C17.515 3.48474 17.7173 3.50332 17.9101 3.54049C18.1031 3.57766 18.297 3.63982 18.4918 3.72699L16.2188 5.99999L17.9996 7.78074L20.2726 5.50774C20.3701 5.70257 20.4348 5.89649 20.4668 6.08949C20.4988 6.28232 20.5148 6.48457 20.5148 6.69624C20.5148 7.59624 20.2046 8.35649 19.5841 8.97699C18.9636 9.59749 18.2033 9.90774 17.3033 9.90774C17.065 9.90774 16.8378 9.88466 16.6216 9.83849C16.4056 9.79232 16.1963 9.70832 15.9938 9.58649L5.08034 20.5Z" fill="white"/>
</g>
</svg>
