<svg width="24" height="24" viewBox="0 0 24 24" fill="none" xmlns="http://www.w3.org/2000/svg">
<mask id="mask0_1175_1130" style="mask-type:alpha" maskUnits="userSpaceOnUse" x="0" y="0" width="24" height="24">
<rect width="24" height="24" fill="#D9D9D9"/>
</mask>
<g mask="url(#mask0_1175_1130)">
<path d="M4.49972 20.5V11.2403L2.63247 12.673L1.73047 11.477L4.49972 9.35001V6.48076H5.99972V8.20001L11.9997 3.62501L22.269 11.477L21.367 12.6578L19.4997 11.2403V20.5H4.49972ZM5.99972 19H10.8075V14.6153H13.192V19H17.9997V10.1L11.9997 5.52501L5.99972 10.1V19ZM4.49972 5.38476C4.49972 4.66676 4.74172 4.05459 5.22572 3.54826C5.70972 3.04176 6.33955 2.78851 7.11522 2.78851C7.47539 2.78851 7.7513 2.68309 7.94297 2.47226C8.13464 2.26126 8.23047 2.00126 8.23047 1.69226H9.73047C9.73047 2.41026 9.48847 3.02251 9.00447 3.52901C8.52047 4.03534 7.89072 4.28851 7.11522 4.28851C6.75489 4.28851 6.47889 4.39393 6.28722 4.60476C6.09555 4.81576 5.99972 5.07576 5.99972 5.38476H4.49972Z" fill="white"/>
</g>
</svg>
