<svg width="24" height="24" viewBox="0 0 24 24" fill="none" xmlns="http://www.w3.org/2000/svg">
<mask id="mask0_1267_263" style="mask-type:alpha" maskUnits="userSpaceOnUse" x="0" y="0" width="24" height="24">
<rect width="24" height="24" fill="#D9D9D9"/>
</mask>
<g mask="url(#mask0_1267_263)">
<path d="M18.658 21.475C18.5375 21.475 18.4254 21.4557 18.3215 21.4172C18.2175 21.3787 18.1188 21.3127 18.0253 21.2192L12.983 16.1865C12.8894 16.0928 12.8233 15.9941 12.7848 15.8902C12.7464 15.7864 12.7273 15.6742 12.7273 15.5537C12.7273 15.4332 12.7464 15.3211 12.7848 15.2172C12.8233 15.1134 12.8894 15.0147 12.983 14.9212L14.8773 13.027C14.9708 12.9333 15.0694 12.8672 15.1733 12.8287C15.2771 12.7904 15.3893 12.7712 15.5098 12.7712C15.6303 12.7712 15.7424 12.7904 15.8463 12.8287C15.9503 12.8672 16.049 12.9333 16.1425 13.027L21.1848 18.0692C21.2784 18.1627 21.3445 18.2614 21.383 18.3652C21.4214 18.4692 21.4405 18.5815 21.4405 18.702C21.4405 18.8225 21.4214 18.9346 21.383 19.0385C21.3445 19.1423 21.2784 19.241 21.1848 19.3345L19.2905 21.2192C19.197 21.3127 19.0984 21.3787 18.9945 21.4172C18.8907 21.4557 18.7785 21.475 18.658 21.475ZM18.658 19.7635L19.7195 18.702L15.5253 14.5077L14.4638 15.5692L18.658 19.7635ZM5.31753 21.4902C5.19703 21.4902 5.08228 21.4685 4.97328 21.425C4.86445 21.3813 4.7632 21.3127 4.66953 21.2192L2.79078 19.35C2.69711 19.2563 2.62853 19.1551 2.58503 19.0462C2.54136 18.9372 2.51953 18.8225 2.51953 18.702C2.51953 18.5815 2.54136 18.4676 2.58503 18.3605C2.62853 18.2535 2.69711 18.1531 2.79078 18.0595L8.01378 12.8365H10.1195L10.931 12.025L6.74828 7.84222H5.32328L2.54828 5.06722L5.02728 2.58847L7.80228 5.36347V6.78847L11.9848 10.9712L14.9425 8.01347L13.483 6.55373L14.7483 5.28847H12.2023L11.6465 4.74222L14.8405 1.54797L15.3868 2.09422V4.64997L16.652 3.38472L20.4138 7.12698C20.6778 7.38464 20.8768 7.67822 21.0108 8.00772C21.1448 8.33722 21.2118 8.68589 21.2118 9.05373C21.2118 9.37689 21.156 9.68814 21.0445 9.98747C20.933 10.2868 20.7709 10.5589 20.558 10.8037L18.4715 8.71722L17.0618 10.127L16.0023 9.06722L11.1638 13.9057V16.0152L5.95028 21.2192C5.85678 21.3127 5.75803 21.3813 5.65403 21.425C5.5502 21.4685 5.43803 21.4902 5.31753 21.4902ZM5.31753 19.7537L9.90428 15.1672V14.1057H8.84253L4.25603 18.6922L5.31753 19.7537ZM5.31753 19.7537L4.25603 18.6922L4.79453 19.2155L5.31753 19.7537Z" fill="white"/>
</g>
</svg>
