<svg width="24" height="24" viewBox="0 0 24 24" fill="none" xmlns="http://www.w3.org/2000/svg">
<mask id="mask0_1207_473" style="mask-type:alpha" maskUnits="userSpaceOnUse" x="0" y="0" width="24" height="24">
<rect width="24" height="24" fill="#D9D9D9"/>
</mask>
<g mask="url(#mask0_1207_473)">
<path d="M2.36523 20.577V3.07703H11.865V7.07703H21.6342V20.577H2.36523ZM3.86498 19.077H6.36523V16.577H3.86498V19.077ZM3.86498 15.077H6.36523V12.577H3.86498V15.077ZM3.86498 11.077H6.36523V8.57703H3.86498V11.077ZM3.86498 7.07703H6.36523V4.57703H3.86498V7.07703ZM7.86498 19.077H10.3652V16.577H7.86498V19.077ZM7.86498 15.077H10.3652V12.577H7.86498V15.077ZM7.86498 11.077H10.3652V8.57703H7.86498V11.077ZM7.86498 7.07703H10.3652V4.57703H7.86498V7.07703ZM11.865 19.077H20.1345V8.57703H11.865V11.077H14.0575V12.577H11.865V15.077H14.0575V16.577H11.865V19.077ZM16.2497 12.577V11.077H17.7497V12.577H16.2497ZM16.2497 16.577V15.077H17.7497V16.577H16.2497Z" fill="white"/>
</g>
</svg>
