<svg width="24" height="24" viewBox="0 0 24 24" fill="none" xmlns="http://www.w3.org/2000/svg">
<mask id="mask0_1267_269" style="mask-type:alpha" maskUnits="userSpaceOnUse" x="0" y="0" width="24" height="24">
<rect width="24" height="24" fill="#D9D9D9"/>
</mask>
<g mask="url(#mask0_1267_269)">
<path d="M8.95375 11.354L11.1713 9.12124L9.44425 7.37874L8.31525 8.50774L7.2615 7.45399L8.375 6.32499L6.8365 4.78649L4.60375 7.01924L8.95375 11.354ZM16.9713 19.3865L19.2038 17.1537L17.6653 15.6152L16.5365 16.7287L15.4828 15.675L16.5963 14.5462L14.8635 12.8287L12.646 15.0462L16.9713 19.3865ZM7.202 20.5H3.5V16.798L7.88475 12.4135L2.5 7.01924L6.8365 2.68274L12.2558 8.09224L16.377 3.95574C16.5322 3.80057 16.7027 3.68582 16.8885 3.61149C17.0743 3.53716 17.2686 3.49999 17.4713 3.49999C17.6738 3.49999 17.8679 3.53716 18.0538 3.61149C18.2398 3.68582 18.4103 3.80057 18.5653 3.95574L20.0443 5.47899C20.1994 5.63399 20.3125 5.80449 20.3835 5.99049C20.4547 6.17632 20.4903 6.37049 20.4903 6.57299C20.4903 6.77566 20.4547 6.96574 20.3835 7.14324C20.3125 7.32074 20.1994 7.48707 20.0443 7.64224L15.9423 11.7692L21.3173 17.1635L16.9808 21.5L11.5865 16.1152L7.202 20.5ZM5 19H6.5635L16.373 9.20574L14.7943 7.62699L5 17.4365V19ZM15.5963 8.41924L14.7943 7.62699L16.373 9.20574L15.5963 8.41924Z" fill="white"/>
</g>
</svg>
