<svg width="24" height="24" viewBox="0 0 24 24" fill="none" xmlns="http://www.w3.org/2000/svg">
<mask id="mask0_1207_488" style="mask-type:alpha" maskUnits="userSpaceOnUse" x="0" y="0" width="24" height="24">
<rect width="24" height="24" fill="#D9D9D9"/>
</mask>
<g mask="url(#mask0_1207_488)">
<path d="M12 20.0385C11.0218 20.0385 10.1876 19.6933 9.49725 19.0028C8.80675 18.3124 8.4615 17.4782 8.4615 16.5H5C4.5875 16.5 4.23442 16.3531 3.94075 16.0593C3.64692 15.7656 3.5 15.4125 3.5 15C3.5 12.7885 4.24425 10.8706 5.73275 9.24626C7.22125 7.62193 9.06033 6.71676 11.25 6.53076V3.69226H12.75V6.53076C14.9397 6.71676 16.7788 7.62193 18.2673 9.24626C19.7558 10.8706 20.5 12.7885 20.5 15C20.5 15.4125 20.3531 15.7656 20.0592 16.0593C19.7656 16.3531 19.4125 16.5 19 16.5H15.5385C15.5385 17.4782 15.1932 18.3124 14.5027 19.0028C13.8124 19.6933 12.9782 20.0385 12 20.0385ZM5 15H19C19 13.0667 18.3167 11.4167 16.95 10.05C15.5833 8.68334 13.9333 8.00001 12 8.00001C10.0667 8.00001 8.41667 8.68334 7.05 10.05C5.68333 11.4167 5 13.0667 5 15ZM12.0025 18.5385C12.5637 18.5385 13.0433 18.3389 13.4413 17.9398C13.8394 17.5404 14.0385 17.0605 14.0385 16.5H9.9615C9.9615 17.0628 10.1613 17.5433 10.561 17.9413C10.9607 18.3394 11.4412 18.5385 12.0025 18.5385Z" fill="white"/>
</g>
</svg>
