<svg width="22" height="22" viewBox="0 0 22 22" fill="none" xmlns="http://www.w3.org/2000/svg">
<mask id="mask0_1193_1753" style="mask-type:alpha" maskUnits="userSpaceOnUse" x="0" y="0" width="22" height="22">
<rect width="22" height="22" fill="#D9D9D9"/>
</mask>
<g mask="url(#mask0_1193_1753)">
<path d="M14.0255 14.9822L10.313 11.2697V6.6458H11.688V10.7302L14.9827 14.025L14.0255 14.9822ZM3.11529 14.709C2.88735 14.2365 2.70783 13.7458 2.57675 13.2369C2.44582 12.7281 2.36034 12.2117 2.32031 11.6875H3.70952C3.7494 12.0905 3.82166 12.4877 3.92631 12.8791C4.03081 13.2706 4.1677 13.6514 4.33698 14.0215L3.11529 14.709ZM2.32031 10.3125C2.36034 9.78829 2.44735 9.26946 2.58133 8.75597C2.71532 8.24233 2.90094 7.74634 3.13821 7.26799L4.33698 7.95549C4.1619 8.32567 4.02356 8.70792 3.92196 9.10224C3.82021 9.49656 3.7494 9.89997 3.70952 10.3125H2.32031ZM6.08392 18.1887C5.63628 17.8773 5.22202 17.5304 4.84115 17.1478C4.46042 16.7653 4.11431 16.3501 3.80279 15.9023L5.00156 15.2061C5.24478 15.5515 5.51421 15.8721 5.80983 16.1677C6.10546 16.4633 6.42599 16.7327 6.77142 16.976L6.08392 18.1887ZM5.02448 6.77093L3.80279 6.08343C4.11431 5.63579 4.46042 5.22298 4.84115 4.84501C5.22202 4.46719 5.63628 4.1226 6.08392 3.81124L6.77142 5.02399C6.43531 5.26721 6.12096 5.53519 5.8284 5.82791C5.53567 6.12048 5.2677 6.43482 5.02448 6.77093ZM10.313 19.6801C9.78878 19.6401 9.26994 19.5531 8.75646 19.4191C8.24282 19.2851 7.74683 19.0995 7.26848 18.8622L7.95598 17.6634C8.32616 17.8385 8.70841 17.9769 9.10273 18.0785C9.49705 18.1802 9.90046 18.251 10.313 18.2909V19.6801ZM7.95598 4.33649L7.26848 3.13772C7.74683 2.90046 8.24282 2.71483 8.75646 2.58085C9.26994 2.44686 9.78878 2.35985 10.313 2.31982V3.70903C9.90046 3.74891 9.49705 3.81972 9.10273 3.92147C8.70841 4.02307 8.32616 4.16141 7.95598 4.33649ZM11.688 19.6801V18.2909C12.1005 18.251 12.5039 18.1802 12.8982 18.0785C13.2925 17.9769 13.6748 17.8385 14.0449 17.6634L14.7324 18.8622C14.2541 19.0995 13.7581 19.2851 13.2445 19.4191C12.731 19.5531 12.2121 19.6401 11.688 19.6801ZM14.0449 4.33649C13.6748 4.16141 13.2925 4.02307 12.8982 3.92147C12.5039 3.81972 12.1005 3.74891 11.688 3.70903V2.31982C12.2121 2.35985 12.731 2.44686 13.2445 2.58085C13.7581 2.71483 14.2541 2.90046 14.7324 3.13772L14.0449 4.33649ZM15.917 18.1887L15.2295 16.976C15.5656 16.7327 15.88 16.4648 16.1725 16.172C16.4652 15.8795 16.7332 15.5651 16.9764 15.229L18.1892 15.9165C17.8778 16.3642 17.5332 16.7792 17.1554 17.1618C16.7774 17.5444 16.3646 17.8867 15.917 18.1887ZM16.9764 6.76222C16.7332 6.42611 16.4652 6.11322 16.1725 5.82355C15.88 5.53373 15.5656 5.26721 15.2295 5.02399L15.917 3.81124C16.3646 4.11328 16.7774 4.45176 17.1554 4.82668C17.5332 5.2016 17.8732 5.61287 18.1752 6.06051L16.9764 6.76222ZM18.2914 10.3125C18.2515 9.89997 18.1793 9.49656 18.0746 9.10224C17.9701 8.70792 17.8302 8.32277 17.655 7.94678L18.8627 7.24508C19.0907 7.73289 19.274 8.23355 19.4127 8.74703C19.5513 9.26067 19.6406 9.78248 19.6806 10.3125H18.2914ZM18.8627 14.7319L17.6639 14.0444C17.839 13.6743 17.9774 13.292 18.079 12.8977C18.1807 12.5034 18.2515 12.1 18.2914 11.6875H19.6806C19.6406 12.2117 19.5536 12.7305 19.4196 13.244C19.2856 13.7576 19.1 14.2536 18.8627 14.7319Z" fill="white"/>
</g>
</svg>
