<svg width="32" height="32" viewBox="0 0 32 32" fill="none" xmlns="http://www.w3.org/2000/svg">
<mask id="mask0_1254_754" style="mask-type:alpha" maskUnits="userSpaceOnUse" x="0" y="0" width="32" height="32">
<rect width="32" height="32" fill="#D9D9D9"/>
</mask>
<g mask="url(#mask0_1254_754)">
<path d="M8.154 30H4.41033C3.73678 30 3.16667 29.7667 2.7 29.3C2.23333 28.8333 2 28.2632 2 27.5897V23.846H4V27.5897C4 27.7094 4.03844 27.8078 4.11533 27.8847C4.19222 27.9616 4.29056 28 4.41033 28H8.154V30ZM23.846 30V28H27.5897C27.7094 28 27.8078 27.9616 27.8847 27.8847C27.9616 27.8078 28 27.7094 28 27.5897V23.846H30V27.5897C30 28.2632 29.7667 28.8333 29.3 29.3C28.8333 29.7667 28.2632 30 27.5897 30H23.846ZM16 24.1537C13.4787 24.1537 11.203 23.4226 9.173 21.9603C7.14322 20.4979 5.63689 18.5111 4.654 16C5.63689 13.4889 7.14322 11.5021 9.173 10.0397C11.203 8.57745 13.4787 7.84633 16 7.84633C18.5213 7.84633 20.797 8.57745 22.827 10.0397C24.8568 11.5021 26.3631 13.4889 27.346 16C26.3631 18.5111 24.8568 20.4979 22.827 21.9603C20.797 23.4226 18.5213 24.1537 16 24.1537ZM16 22.154C17.9898 22.154 19.7914 21.6121 21.405 20.5283C23.0188 19.4446 24.2718 17.9351 25.164 16C24.2718 14.0649 23.0188 12.5554 21.405 11.4717C19.7914 10.3879 17.9898 9.846 16 9.846C14.0102 9.846 12.2086 10.3879 10.595 11.4717C8.98122 12.5554 7.72822 14.0649 6.836 16C7.72822 17.9351 8.98122 19.4446 10.595 20.5283C12.2086 21.6121 14.0102 22.154 16 22.154ZM16 20.2437C17.1778 20.2437 18.1794 19.8308 19.005 19.005C19.8308 18.1794 20.2437 17.1778 20.2437 16C20.2437 14.8222 19.8308 13.8206 19.005 12.995C18.1794 12.1692 17.1778 11.7563 16 11.7563C14.8222 11.7563 13.8206 12.1692 12.995 12.995C12.1692 13.8206 11.7563 14.8222 11.7563 16C11.7563 17.1778 12.1692 18.1794 12.995 19.005C13.8206 19.8308 14.8222 20.2437 16 20.2437ZM16 18.2437C15.376 18.2437 14.8461 18.0257 14.4103 17.5897C13.9743 17.1539 13.7563 16.624 13.7563 16C13.7563 15.376 13.9743 14.8461 14.4103 14.4103C14.8461 13.9743 15.376 13.7563 16 13.7563C16.624 13.7563 17.1539 13.9743 17.5897 14.4103C18.0257 14.8461 18.2437 15.376 18.2437 16C18.2437 16.624 18.0257 17.1539 17.5897 17.5897C17.1539 18.0257 16.624 18.2437 16 18.2437ZM2 8.154V4.41033C2 3.73678 2.23333 3.16667 2.7 2.7C3.16667 2.23333 3.73678 2 4.41033 2H8.154V4H4.41033C4.29056 4 4.19222 4.03845 4.11533 4.11533C4.03844 4.19222 4 4.29056 4 4.41033V8.154H2ZM28 8.154V4.41033C28 4.29056 27.9616 4.19222 27.8847 4.11533C27.8078 4.03845 27.7094 4 27.5897 4H23.846V2H27.5897C28.2632 2 28.8333 2.23333 29.3 2.7C29.7667 3.16667 30 3.73678 30 4.41033V8.154H28Z" fill="#816549"/>
</g>
</svg>
