<svg width="26" height="26" viewBox="0 0 26 26" fill="none" xmlns="http://www.w3.org/2000/svg">
<mask id="mask0_1175_1451" style="mask-type:alpha" maskUnits="userSpaceOnUse" x="0" y="0" width="26" height="26">
<rect width="26" height="26" fill="#D9D9D9"/>
</mask>
<g mask="url(#mask0_1175_1451)">
<path d="M4.33366 22.7501C3.73783 22.7501 3.22776 22.5379 2.80345 22.1136C2.37914 21.6893 2.16699 21.1792 2.16699 20.5834V8.66675C2.16699 8.07091 2.37914 7.56085 2.80345 7.13654C3.22776 6.71223 3.73783 6.50008 4.33366 6.50008H8.66699V4.33341C8.66699 3.73758 8.87915 3.22751 9.30345 2.80321C9.72776 2.3789 10.2378 2.16675 10.8337 2.16675H15.167C15.7628 2.16675 16.2729 2.3789 16.6972 2.80321C17.1215 3.22751 17.3337 3.73758 17.3337 4.33341V6.50008H21.667C22.2628 6.50008 22.7729 6.71223 23.1972 7.13654C23.6215 7.56085 23.8337 8.07091 23.8337 8.66675V13.298C23.5087 13.0633 23.1656 12.8602 22.8045 12.6886C22.4434 12.5171 22.0642 12.3681 21.667 12.2417V8.66675H4.33366V20.5834H11.9982C12.0524 20.9626 12.1337 21.3327 12.242 21.6938C12.3503 22.0549 12.4857 22.407 12.6482 22.7501H4.33366ZM10.8337 6.50008H15.167V4.33341H10.8337V6.50008ZM19.5003 24.9167C18.0017 24.9167 16.7243 24.3886 15.668 23.3324C14.6118 22.2761 14.0837 20.9987 14.0837 19.5001C14.0837 18.0015 14.6118 16.724 15.668 15.6678C16.7243 14.6115 18.0017 14.0834 19.5003 14.0834C20.9989 14.0834 22.2764 14.6115 23.3326 15.6678C24.3889 16.724 24.917 18.0015 24.917 19.5001C24.917 20.9987 24.3889 22.2761 23.3326 23.3324C22.2764 24.3886 20.9989 24.9167 19.5003 24.9167ZM20.042 19.2834V16.2501H18.9587V19.7167L21.2878 22.0459L22.0462 21.2876L20.042 19.2834Z" fill="#816549"/>
</g>
</svg>
