<svg width="26" height="26" viewBox="0 0 26 26" fill="none" xmlns="http://www.w3.org/2000/svg">
<mask id="mask0_1277_294" style="mask-type:alpha" maskUnits="userSpaceOnUse" x="0" y="0" width="26" height="26">
<rect width="26" height="26" fill="#D9D9D9"/>
</mask>
<g mask="url(#mask0_1277_294)">
<path d="M13.0003 18.9583C14.2281 18.9583 15.343 18.6107 16.3451 17.9156C17.3472 17.2204 18.0739 16.3041 18.5253 15.1666H7.47533C7.92671 16.3041 8.65345 17.2204 9.65553 17.9156C10.6576 18.6107 11.7725 18.9583 13.0003 18.9583ZM8.45033 11.9166L9.64199 10.7791L10.7795 11.9166L11.917 10.7791L9.64199 8.44996L7.31283 10.7791L8.45033 11.9166ZM15.2212 11.9166L16.3587 10.7791L17.5503 11.9166L18.6878 10.7791L16.3587 8.44996L14.0837 10.7791L15.2212 11.9166ZM13.0003 23.8333C11.5017 23.8333 10.0934 23.5489 8.77532 22.9802C7.45727 22.4114 6.31074 21.6395 5.33574 20.6645C4.36074 19.6895 3.58887 18.543 3.02012 17.225C2.45137 15.9069 2.16699 14.4986 2.16699 13C2.16699 11.5013 2.45137 10.093 3.02012 8.77496C3.58887 7.4569 4.36074 6.31038 5.33574 5.33538C6.31074 4.36038 7.45727 3.5885 8.77532 3.01975C10.0934 2.451 11.5017 2.16663 13.0003 2.16663C14.4989 2.16663 15.9073 2.451 17.2253 3.01975C18.5434 3.5885 19.6899 4.36038 20.6649 5.33538C21.6399 6.31038 22.4118 7.4569 22.9805 8.77496C23.5493 10.093 23.8337 11.5013 23.8337 13C23.8337 14.4986 23.5493 15.9069 22.9805 17.225C22.4118 18.543 21.6399 19.6895 20.6649 20.6645C19.6899 21.6395 18.5434 22.4114 17.2253 22.9802C15.9073 23.5489 14.4989 23.8333 13.0003 23.8333ZM13.0003 21.6666C15.4198 21.6666 17.4691 20.827 19.1482 19.1479C20.8274 17.4687 21.667 15.4194 21.667 13C21.667 10.5805 20.8274 8.53121 19.1482 6.85204C17.4691 5.17288 15.4198 4.33329 13.0003 4.33329C10.5809 4.33329 8.53158 5.17288 6.85241 6.85204C5.17324 8.53121 4.33366 10.5805 4.33366 13C4.33366 15.4194 5.17324 17.4687 6.85241 19.1479C8.53158 20.827 10.5809 21.6666 13.0003 21.6666Z" fill="#816549"/>
</g>
</svg>
