<svg width="26" height="26" viewBox="0 0 26 26" fill="none" xmlns="http://www.w3.org/2000/svg">
<mask id="mask0_1277_282" style="mask-type:alpha" maskUnits="userSpaceOnUse" x="0" y="0" width="26" height="26">
<rect width="26" height="26" fill="#D9D9D9"/>
</mask>
<g mask="url(#mask0_1277_282)">
<path d="M23.0749 20.2583L19.8249 17.0083L21.3415 15.4916L24.5915 18.7416L23.0749 20.2583ZM19.1749 7.25829L17.6582 5.74163L20.9082 2.49163L22.4249 4.00829L19.1749 7.25829ZM6.82487 7.25829L3.57487 4.00829L5.09154 2.49163L8.34154 5.74163L6.82487 7.25829ZM2.92487 20.2583L1.4082 18.7416L4.6582 15.4916L6.17487 17.0083L2.92487 20.2583ZM9.58737 18.227L12.9999 16.1687L16.4124 18.2541L15.5186 14.3541L18.5249 11.7541L14.5707 11.402L12.9999 7.71871L11.429 11.375L7.47487 11.727L10.4811 14.3541L9.58737 18.227ZM6.31029 22.75L8.0707 15.1395L2.16654 10.0208L9.96654 9.34371L12.9999 2.16663L16.0332 9.34371L23.8332 10.0208L17.929 15.1395L19.6895 22.75L12.9999 18.7145L6.31029 22.75Z" fill="#816549"/>
</g>
</svg>
