<svg width="26" height="26" viewBox="0 0 26 26" fill="none" xmlns="http://www.w3.org/2000/svg">
<mask id="mask0_1277_288" style="mask-type:alpha" maskUnits="userSpaceOnUse" x="0" y="0" width="26" height="26">
<rect width="26" height="26" fill="#D9D9D9"/>
</mask>
<g mask="url(#mask0_1277_288)">
<path d="M4.33301 23.8333V21.6666H6.49967V18.4166C6.49967 17.3152 6.75697 16.2816 7.27155 15.3156C7.78613 14.3496 8.50384 13.5777 9.42467 13C8.50384 12.4222 7.78613 11.6503 7.27155 10.6843C6.75697 9.71836 6.49967 8.68468 6.49967 7.58329V4.33329H4.33301V2.16663H21.6663V4.33329H19.4997V7.58329C19.4997 8.44996 19.3372 9.28052 19.0122 10.075C18.6872 10.8694 18.2268 11.5645 17.6309 12.1604C16.9448 12.3409 16.3038 12.6027 15.708 12.9458C15.1122 13.2888 14.5705 13.7132 14.083 14.2187C13.9025 14.1826 13.7264 14.151 13.5549 14.1239C13.3834 14.0968 13.1983 14.0833 12.9997 14.0833C11.808 14.0833 10.7879 14.5076 9.93926 15.3562C9.09065 16.2048 8.66634 17.225 8.66634 18.4166V21.6666H12.2413C12.3677 22.0638 12.5167 22.443 12.6882 22.8041C12.8597 23.1652 13.0629 23.5083 13.2976 23.8333H4.33301ZM12.9997 11.9166C14.1913 11.9166 15.2115 11.4923 16.0601 10.6437C16.9087 9.7951 17.333 8.77496 17.333 7.58329V4.33329H8.66634V7.58329C8.66634 8.77496 9.09065 9.7951 9.93926 10.6437C10.7879 11.4923 11.808 11.9166 12.9997 11.9166ZM19.4997 24.9166C18.0011 24.9166 16.7236 24.3885 15.6674 23.3323C14.6111 22.276 14.083 20.9986 14.083 19.5C14.083 18.0013 14.6111 16.7239 15.6674 15.6677C16.7236 14.6114 18.0011 14.0833 19.4997 14.0833C20.9983 14.0833 22.2757 14.6114 23.332 15.6677C24.3882 16.7239 24.9163 18.0013 24.9163 19.5C24.9163 20.9986 24.3882 22.276 23.332 23.3323C22.2757 24.3885 20.9983 24.9166 19.4997 24.9166ZM18.7413 21.9375L22.5872 18.0916L21.7747 17.2791L18.7413 20.3125L17.2247 18.7958L16.4122 19.6083L18.7413 21.9375Z" fill="#816549"/>
</g>
</svg>
